<?xml version="1.0" standalone="no"?>
<!DOCTYPE svg PUBLIC "-//W3C//DTD SVG 20010904//EN"
 "http://www.w3.org/TR/2001/REC-SVG-20010904/DTD/svg10.dtd">
<svg version="1.0" xmlns="http://www.w3.org/2000/svg"
 width="512.000000pt" height="512.000000pt" viewBox="0 0 512.000000 512.000000"
 preserveAspectRatio="xMidYMid meet">

<g transform="translate(0.000000,512.000000) scale(0.100000,-0.100000)"
fill="#000000" stroke="none">
<path d="M445 5110 c-134 -18 -260 -92 -339 -200 -56 -75 -84 -151 -97 -254
-6 -51 -9 -855 -7 -2156 l3 -2075 22 -65 c55 -162 177 -282 337 -333 l71 -22
2125 0 2125 0 71 22 c163 52 285 174 337 338 l22 70 0 2125 0 2125 -22 71
c-51 160 -171 282 -333 337 l-65 22 -2095 1 c-1152 1 -2122 -2 -2155 -6z m753
-1912 l-3 -133 -212 -3 c-117 -1 -213 -5 -213 -9 0 -4 91 -172 201 -375 259
-473 276 -520 245 -667 -17 -83 -50 -144 -103 -196 l-36 -35 -294 0 -294 0 3
133 3 132 228 5 227 5 -219 393 c-120 216 -228 422 -240 457 -52 158 -4 319
116 395 l47 30 273 0 274 0 -3 -132z m2982 -643 l0 -775 -150 0 -150 0 0 775
0 775 150 0 150 0 0 -775z m480 0 l0 -775 -150 0 -150 0 0 775 0 775 150 0
150 0 0 -775z m-3046 324 l20 -36 47 29 c51 32 131 47 252 48 64 0 70 -2 98
-32 16 -18 29 -36 29 -40 0 -4 23 7 51 24 59 37 120 47 296 47 110 1 113 0
138 -26 40 -43 114 -200 132 -283 14 -62 17 -138 17 -450 l1 -375 -147 -3
-148 -3 0 318 c0 342 -9 459 -42 535 l-20 48 -100 0 c-99 0 -100 0 -93 -22 33
-109 35 -139 33 -505 l-3 -368 -145 0 -145 0 -6 385 c-5 375 -8 404 -40 483
-11 26 -13 27 -95 27 l-84 0 0 -450 0 -451 -147 3 -148 3 -3 559 c-2 441 0
561 10 568 7 4 60 7 118 6 l105 -3 19 -36z m1913 3 c108 -86 146 -158 163
-310 5 -48 10 -244 11 -437 l1 -350 -125 -3 -126 -3 -21 40 -20 40 -35 -24
c-48 -32 -156 -55 -259 -55 -83 0 -85 1 -129 38 -89 74 -133 164 -143 287 -12
139 30 257 125 350 l56 55 140 0 c118 0 147 -4 184 -20 24 -11 45 -20 47 -20
10 0 2 115 -10 144 -26 63 -38 66 -258 66 l-198 0 0 113 c0 63 3 117 7 120 3
4 127 7 274 7 l267 0 49 -38z"/>
<path d="M3163 2278 c-36 -46 -42 -151 -13 -215 l19 -43 116 0 115 0 0 135 0
135 -114 0 c-79 0 -117 -4 -123 -12z"/>
</g>
</svg>
